<svg xmlns="http://www.w3.org/2000/svg" viewBox="0 0 64 64" width="64" height="64"><path d="M62.982 7.827C60.576 5.408 58.33 2.694 55.539 0.704c-2.56 -0.531 -3.789 2.234 -5.549 3.526 2.97 3.45 6.432 6.496 9.626 9.76 1.446 -1.722 4.877 -3.488 3.366 -6.163zm-1.587 13.03c-2.029 2.035 -4.128 4.019 -6.086 6.131 -0.051 8.16 0.019 16.32 -0.026 24.486 -0.038 3.008 -2.675 5.677 -5.683 5.779 -12.378 0.051 -24.768 0.051 -37.146 0.006 -3.341 -0.09 -6.016 -3.29 -5.754 -6.573 -0.006 -11.814 -0.006 -23.622 0 -35.424 -0.256 -3.27 2.432 -6.419 5.734 -6.534 8.198 -0.109 16.403 0.006 24.595 -0.058 2.125 -1.92 4.09 -4.026 6.125 -6.048 -10.918 0 -21.824 -0.058 -32.742 0.032 -5.094 0.09 -9.664 4.544 -9.754 9.664 -0.013 13.773 -0.051 27.539 0.026 41.312 0.019 4.96 4.23 9.261 9.114 9.728h42.893c4.627 -0.813 8.595 -4.851 8.653 -9.658 0.141 -10.944 0.032 -21.901 0.051 -32.845zm-3.27 -5.357C54.912 12.269 51.674 9.056 48.422 5.856 41.306 12.922 34.176 19.968 27.098 27.072c3.206 3.226 6.426 6.438 9.683 9.619C43.904 29.638 51.021 22.566 58.125 15.501zm-36.288 26.394c4.358 -1.184 6.682 -1.933 11.04 -3.104 1.165 -0.371 1.939 -0.595 2.541 -0.832 -3.085 -2.938 -6.63 -6.56 -9.709 -9.523 -1.299 4.486 -2.579 8.973 -3.872 13.459z"/></svg>