<?xml version="1.0" encoding="UTF-8" standalone="no"?>
<svg
   xmlns:vectornator="http://vectornator.io"
   xmlns:dc="http://purl.org/dc/elements/1.1/"
   xmlns:cc="http://creativecommons.org/ns#"
   xmlns:rdf="http://www.w3.org/1999/02/22-rdf-syntax-ns#"
   xmlns:svg="http://www.w3.org/2000/svg"
   xmlns="http://www.w3.org/2000/svg"
   xmlns:sodipodi="http://sodipodi.sourceforge.net/DTD/sodipodi-0.dtd"
   xmlns:inkscape="http://www.inkscape.org/namespaces/inkscape"
   height="100%"
   style="fill-rule:nonzero;clip-rule:evenodd;stroke-linecap:round;stroke-linejoin:round;"
   xml:space="preserve"
   width="100%"
   version="1.1"
   viewBox="0 0 195.662 101"
   id="svg22"
   sodipodi:docname="left_g.svg"
   inkscape:version="1.0.2 (e86c870879, 2021-01-15, custom)"><sodipodi:namedview
   pagecolor="#ffffff"
   bordercolor="#666666"
   borderopacity="1"
   objecttolerance="10"
   gridtolerance="10"
   guidetolerance="10"
   inkscape:pageopacity="0"
   inkscape:pageshadow="2"
   inkscape:window-width="1920"
   inkscape:window-height="1017"
   id="namedview24"
   showgrid="false"
   inkscape:zoom="1.249417"
   inkscape:cx="172.75977"
   inkscape:cy="-166.90772"
   inkscape:window-x="-8"
   inkscape:window-y="-8"
   inkscape:window-maximized="1"
   inkscape:current-layer="svg22" />
<metadata
   id="metadata2">
<vectornator:setting
   key="DimensionsVisible"
   value="0" />
<vectornator:setting
   key="PencilOnly"
   value="0" />
<vectornator:setting
   key="SnapToPoints"
   value="0" />
<vectornator:setting
   key="OutlineMode"
   value="0" />
<vectornator:setting
   key="CMYKEnabledKey"
   value="0" />
<vectornator:setting
   key="RulersVisible"
   value="1" />
<vectornator:setting
   key="SnapToEdges"
   value="0" />
<vectornator:setting
   key="GuidesVisible"
   value="0" />
<vectornator:setting
   key="DisplayWhiteBackground"
   value="0" />
<vectornator:setting
   key="doHistoryDisabled"
   value="0" />
<vectornator:setting
   key="SnapToGuides"
   value="1" />
<vectornator:setting
   key="TimeLapseWatermarkDisabled"
   value="0" />
<vectornator:setting
   key="Units"
   value="Points" />
<vectornator:setting
   key="DynamicGuides"
   value="1" />
<vectornator:setting
   key="IsolateActiveLayer"
   value="0" />
<vectornator:setting
   key="SnapToGrid"
   value="0" />
<rdf:RDF><cc:Work
     rdf:about=""><dc:format>image/svg+xml</dc:format><dc:type
       rdf:resource="http://purl.org/dc/dcmitype/StillImage" /><dc:title></dc:title></cc:Work></rdf:RDF></metadata>
<defs
   id="defs4" />

<g
   id="g35"
   transform="matrix(-1,0,0,1,192.40744,0)"><g
     id="Untitled"
     vectornator:layerName="Untitled">
<path
   d="m 81.603,37 -11,-6 -8,-5 -8,-7 -6,-9 -4,-10 -5,9 -6,8 -8,7 -8,4 -9,2 -9.000003,1 V 71 H 9.603 l 8,3 10,4 7,7 5,8 6,8 4,-9 6,-9 6,-6 9,-7 12,-5 12,-4 29,-5 72,-5 -72,-5 -29,-5 z"
   fill-rule="evenodd"
   fill="#000000"
   opacity="1"
   id="path6" />
<path
   d="m 64.992,5.54143 c 0.9752,1.03978 1.9503,2.07955 2.9255,3.11933"
   opacity="1"
   fill="#000000"
   id="path8" />
</g><g
     id="Layer 1"
     vectornator:layerName="Layer 1">
<path
   d="M 3.36519,38.4419 C -1.98574,39.796 -5.6815,32.4018 -1.17151,29.36 17.5899,27.4666 37.8437,16.7028 44.7533,-2.24978e-7 39.6571,18.1786 22.0464,32.537 3.36519,38.4419"
   opacity="1"
   fill="#000000"
   id="path11" />
<path
   d="m 44.7533,3.21956 c 0.5909,-0.30102 -0.1153,1.69466 0,2.32187 0.1193,0.64948 1.0663,-0.06218 2.0905,0 C 77.3681,44.2317 138.705,46.003 182.917,51.821 175.226,50.5 157.52,49.1283 150.618,49.2485 115.084,52.9198 73.1567,48.1649 51.5762,15.2018 47.8501,10.8574 44.7533,7.10109 44.7533,7.10109"
   opacity="1"
   fill="#000000"
   id="path13" />
<path
   d="m 3.36519,62.5581 c -5.35093,-1.3541 -9.04669,6.0401 -4.5367,9.082 15.61991,1.5763 31.91831,9.4915 41.04511,21.6733 1.8356,2.4499 4.6676,4.8898 5.8246,7.6866 C 40.602,82.8214 22.0464,68.463 3.36519,62.5581"
   opacity="1"
   fill="#000000"
   id="path15" />
<path
   d="m 44.7533,3.21956 c 0.5909,-0.30102 -0.1153,1.69466 0,2.32187 0.1193,0.64948 1.0663,-0.06218 2.0905,0 C 77.3681,44.2317 138.705,46.003 182.917,51.821 175.226,50.5 157.52,49.1283 150.618,49.2485 115.084,52.9198 73.1567,48.1649 51.5762,15.2018 47.8501,10.8574 44.7533,7.10109 44.7533,7.10109"
   opacity="1"
   fill="#000000"
   id="path17" />
<path
   d="m 44.7533,99.1014 c 0.5908,0.301 -0.1153,-1.6947 0,-2.3219 0.1193,-0.6494 1.0663,0.0622 2.0905,0 C 77.3681,58.0893 138.705,56.318 182.917,50.5 c -7.691,1.321 -25.397,2.6927 -32.299,2.5725 -35.534,-3.6714 -77.4613,1.0836 -99.0418,34.0466 -3.7261,4.3445 -6.8229,8.1008 -6.8229,8.1008"
   opacity="1"
   fill="#000000"
   id="path19" />
</g></g>
</svg>
