<?xml version="1.0" encoding="UTF-8" standalone="no"?>
<svg
   xmlns:vectornator="http://vectornator.io"
   xmlns:dc="http://purl.org/dc/elements/1.1/"
   xmlns:cc="http://creativecommons.org/ns#"
   xmlns:rdf="http://www.w3.org/1999/02/22-rdf-syntax-ns#"
   xmlns:svg="http://www.w3.org/2000/svg"
   xmlns="http://www.w3.org/2000/svg"
   xmlns:sodipodi="http://sodipodi.sourceforge.net/DTD/sodipodi-0.dtd"
   xmlns:inkscape="http://www.inkscape.org/namespaces/inkscape"
   height="100%"
   style="fill-rule:nonzero;clip-rule:evenodd;stroke-linecap:round;stroke-linejoin:round;"
   xml:space="preserve"
   width="100%"
   version="1.1"
   viewBox="0 0 195.662 101"
   id="svg22"
   sodipodi:docname="right_g.svg"
   inkscape:version="1.0.2 (e86c870879, 2021-01-15, custom)"><sodipodi:namedview
   pagecolor="#ffffff"
   bordercolor="#666666"
   borderopacity="1"
   objecttolerance="10"
   gridtolerance="10"
   guidetolerance="10"
   inkscape:pageopacity="0"
   inkscape:pageshadow="2"
   inkscape:window-width="1920"
   inkscape:window-height="1017"
   id="namedview24"
   showgrid="true"
   inkscape:zoom="9.9953364"
   inkscape:cx="20.421062"
   inkscape:cy="61.121015"
   inkscape:window-x="-8"
   inkscape:window-y="-8"
   inkscape:window-maximized="1"
   inkscape:current-layer="Layer 1"><inkscape:grid
     type="xygrid"
     id="grid26" /></sodipodi:namedview>
<metadata
   id="metadata2">
<vectornator:setting
   key="DimensionsVisible"
   value="0" />
<vectornator:setting
   key="PencilOnly"
   value="0" />
<vectornator:setting
   key="SnapToPoints"
   value="0" />
<vectornator:setting
   key="OutlineMode"
   value="0" />
<vectornator:setting
   key="CMYKEnabledKey"
   value="0" />
<vectornator:setting
   key="RulersVisible"
   value="1" />
<vectornator:setting
   key="SnapToEdges"
   value="0" />
<vectornator:setting
   key="GuidesVisible"
   value="0" />
<vectornator:setting
   key="DisplayWhiteBackground"
   value="0" />
<vectornator:setting
   key="doHistoryDisabled"
   value="0" />
<vectornator:setting
   key="SnapToGuides"
   value="1" />
<vectornator:setting
   key="TimeLapseWatermarkDisabled"
   value="0" />
<vectornator:setting
   key="Units"
   value="Points" />
<vectornator:setting
   key="DynamicGuides"
   value="1" />
<vectornator:setting
   key="IsolateActiveLayer"
   value="0" />
<vectornator:setting
   key="SnapToGrid"
   value="0" />
<rdf:RDF><cc:Work
     rdf:about=""><dc:format>image/svg+xml</dc:format><dc:type
       rdf:resource="http://purl.org/dc/dcmitype/StillImage" /></cc:Work></rdf:RDF></metadata>
<defs
   id="defs4" />
<g
   id="Untitled"
   vectornator:layerName="Untitled"
   transform="matrix(0.99936533,0,0,1,0.1241427,0)">
<path
   d="m 81.603,37 -11,-6 -8,-5 -8,-7 -6,-9 -4,-10 -5,9 -6,8 -8,7 -8,4 -9,2 -9.000003,1 V 71 H 9.603 l 8,3 10,4 7,7 5,8 6,8 4,-9 6,-9 6,-6 9,-7 12,-5 12,-4 29,-5 72,-5 -72,-5 -29,-5 z"
   fill-rule="evenodd"
   fill="#000000"
   opacity="1"
   id="path6" />

</g>
<g
   id="Layer 1"
   vectornator:layerName="Layer 1">
<path
   d="M3.36519+38.4419C-1.98574+39.796-5.6815+32.4018-1.17151+29.36C17.5899+27.4666+37.8437+16.7028+44.7533-2.24978e-07C39.6571+18.1786+22.0464+32.537+3.36519+38.4419"
   opacity="1"
   fill="#000000"
   id="path11" />
<path
   d="M44.7533+3.21956C45.3442+2.91854+44.638+4.91422+44.7533+5.54143C44.8726+6.19091+45.8196+5.47925+46.8438+5.54143C77.3681+44.2317+138.705+46.003+182.917+51.821C175.226+50.5+157.52+49.1283+150.618+49.2485C115.084+52.9198+73.1567+48.1649+51.5762+15.2018C47.8501+10.8574+44.7533+7.10109+44.7533+7.10109"
   opacity="1"
   fill="#000000"
   id="path13" />
<path
   d="M3.36519+62.5581C-1.98574+61.204-5.6815+68.5982-1.17151+71.6401C14.4484+73.2164+30.7468+81.1316+39.8736+93.3134C41.7092+95.7633+44.5412+98.2032+45.6982+101C40.602+82.8214+22.0464+68.463+3.36519+62.5581"
   opacity="1"
   fill="#000000"
   id="path15" />
<path
   d="M44.7533+3.21956C45.3442+2.91854+44.638+4.91422+44.7533+5.54143C44.8726+6.19091+45.8196+5.47925+46.8438+5.54143C77.3681+44.2317+138.705+46.003+182.917+51.821C175.226+50.5+157.52+49.1283+150.618+49.2485C115.084+52.9198+73.1567+48.1649+51.5762+15.2018C47.8501+10.8574+44.7533+7.10109+44.7533+7.10109"
   opacity="1"
   fill="#000000"
   id="path17" />
<path
   d="M44.7533+99.1014C45.3441+99.4024+44.638+97.4067+44.7533+96.7795C44.8726+96.1301+45.8196+96.8417+46.8438+96.7795C77.3681+58.0893+138.705+56.318+182.917+50.5C175.226+51.821+157.52+53.1927+150.618+53.0725C115.084+49.4011+73.1567+54.1561+51.5762+87.1191C47.8501+91.4636+44.7533+95.2199+44.7533+95.2199"
   opacity="1"
   fill="#000000"
   id="path19" />
</g>
</svg>
