<svg xmlns="http://www.w3.org/2000/svg" viewBox="0 0 60 60" width="60" height="60"><path d="M60 30c0 4.136-.732 7.979-2.197 11.514a25.726 25.726 0 0 1-.776 1.704c-1.426 2.876-3.364 5.542-5.82 7.988a32.32 32.32 0 0 1-2.524 2.285 29.28 29.28 0 0 1-2.676 1.943c-4.712 3.042-10.049 4.561-16.006 4.561-4.136 0-7.974-.732-11.514-2.197a25.726 25.726 0 0 1-1.704-.776c-2.876-1.426-5.542-3.364-7.988-5.82a32.32 32.32 0 0 1-2.285-2.524 29.28 29.28 0 0 1-1.943-2.676C1.519 41.299 0 35.957 0 30c0-4.136.732-7.974 2.197-11.514.239-.581.498-1.147.776-1.704 1.426-2.876 3.364-5.542 5.82-7.988a32.32 32.32 0 0 1 2.524-2.285 29.285 29.285 0 0 1 2.676-1.943C18.701 1.519 24.043 0 30 0c4.136 0 7.974.732 11.514 2.197.581.239 1.147.498 1.704.776 2.876 1.426 5.542 3.364 7.988 5.82a32.32 32.32 0 0 1 2.285 2.524 29.285 29.285 0 0 1 1.943 2.676c3.047 4.707 4.565 10.049 4.565 16.006zM30 5.352h.156v49.297H30c-13.613 0-24.648-11.035-24.648-24.648S16.387 5.353 30 5.353z" fill-rule="evenodd" clip-rule="evenodd"/></svg>