<svg xmlns="http://www.w3.org/2000/svg" viewBox="0 0 48 48" width="48" height="48"><path d="M48 24c0 3.309 -0.586 6.383 -1.758 9.211 -0.191 0.465 -0.398 0.918 -0.621 1.363 -1.141 2.301 -2.691 4.434 -4.656 6.391 -0.652 0.656 -1.328 1.266 -2.02 1.828a23.424 23.424 0 0 1 -2.141 1.555c-3.77 2.434 -8.039 3.648 -12.805 3.648 -3.309 0 -6.379 -0.586 -9.211 -1.758 -0.465 -0.191 -0.918 -0.398 -1.363 -0.621 -2.301 -1.141 -4.434 -2.691 -6.391 -4.656 -0.656 -0.652 -1.266 -1.328 -1.828 -2.02a23.424 23.424 0 0 1 -1.555 -2.141C1.215 33.039 0 28.766 0 24c0 -3.309 0.586 -6.379 1.758 -9.211 0.191 -0.465 0.398 -0.918 0.621 -1.363 1.141 -2.301 2.691 -4.434 4.656 -6.391 0.652 -0.656 1.328 -1.266 2.02 -1.828 0.695 -0.566 1.41 -1.086 2.141 -1.555C14.961 1.215 19.234 0 24 0c3.309 0 6.379 0.586 9.211 1.758 0.465 0.191 0.918 0.398 1.363 0.621 2.301 1.141 4.434 2.691 6.391 4.656 0.656 0.652 1.266 1.328 1.828 2.02 0.566 0.695 1.086 1.41 1.555 2.141 2.438 3.766 3.652 8.039 3.652 12.805zM24 4.281h0.125v39.438h-0.125c-10.891 0 -19.719 -8.828 -19.719 -19.719 0 -10.891 8.828 -19.719 19.719 -19.719z" fill-rule="evenodd" clip-rule="evenodd"/></svg>